<svg xmlns="http://www.w3.org/2000/svg" xmlns:xlink="http://www.w3.org/1999/xlink" viewBox="0 0 100 90"><defs><linearGradient id="a" x1="15.9" y1="45.17" x2="84.1" y2="45.17" gradientUnits="userSpaceOnUse"><stop offset="0.5" stop-color="#32aaa0" stop-opacity="0"/><stop offset="0.8" stop-color="#32aaa0" stop-opacity="0.62"/><stop offset="1" stop-color="#32aaa0"/></linearGradient></defs><circle cx="50" cy="45.17" r="34.1" style="opacity:0.30000000000000004;fill:url(#a)"/><path d="M30.58,17A34.1,34.1,0,0,1,75.63,67.51" style="fill:none;stroke:#4559EB;stroke-linecap:round;stroke-linejoin:round;stroke-width:3px"/><path d="M64.66,75.81A34.1,34.1,0,0,1,24.4,22.49" style="fill:none;stroke:#4559EB;stroke-linecap:round;stroke-linejoin:round;stroke-width:3px"/><path d="M61.47,72.48c4.78-6.21,7.88-16.2,7.88-27.46s-3.1-21.26-7.88-27.46" style="fill:none;stroke:#4559EB;stroke-linecap:round;stroke-linejoin:round;stroke-width:3px"/><path d="M38.53,17.56c-4.78,6.2-7.88,16.19-7.88,27.46s3.1,21.25,7.88,27.46" style="fill:none;stroke:#4559EB;stroke-linecap:round;stroke-linejoin:round;stroke-width:3px"/><line x1="50" y1="15.89" x2="50" y2="74.14" style="fill:none;stroke:#4559EB;stroke-linecap:round;stroke-linejoin:round;stroke-width:3px"/><line x1="72.13" y1="33.23" x2="79.13" y2="33.23" style="fill:none;stroke:#4559EB;stroke-linecap:round;stroke-linejoin:round;stroke-width:3px"/><line x1="20.87" y1="33.23" x2="62.85" y2="33.23" style="fill:none;stroke:#4559EB;stroke-linecap:round;stroke-linejoin:round;stroke-width:3px"/><line x1="36.72" y1="56.8" x2="79.13" y2="56.8" style="fill:none;stroke:#4559EB;stroke-linecap:round;stroke-linejoin:round;stroke-width:3px"/><line x1="20.87" y1="56.8" x2="25.73" y2="56.8" style="fill:none;stroke:#4559EB;stroke-linecap:round;stroke-linejoin:round;stroke-width:3px"/><path d="M9,45A41,41,0,0,1,50,4" style="fill:none;stroke:#32aaa0;stroke-linecap:round;stroke-linejoin:round;stroke-width:3px"/><path d="M91,45A41,41,0,0,1,50,86" style="fill:none;stroke:#32aaa0;stroke-linecap:round;stroke-linejoin:round;stroke-width:3px"/></svg>