<svg xmlns="http://www.w3.org/2000/svg" xmlns:xlink="http://www.w3.org/1999/xlink" viewBox="0 0 100 90"><defs><clipPath id="a"><path d="M4.18,4V86.43H95.82V4ZM50,61.33h0L33.76,44.71l7.16-7,9.26,9.45L83.36,14.84l7,7.16L50,61.32Z" style="fill:none"/></clipPath><linearGradient id="b" x1="8.44" y1="45.19" x2="91.56" y2="45.19" gradientUnits="userSpaceOnUse"><stop offset="0.32" stop-color="#32aaa0" stop-opacity="0"/><stop offset="1" stop-color="#32aaa0"/></linearGradient></defs><g style="clip-path:url(#a)"><polygon points="50 71.21 24.31 84.72 29.22 56.12 8.44 35.86 37.16 31.68 50 5.66 62.84 31.68 91.56 35.86 70.78 56.12 75.69 84.72 50 71.21" style="opacity:0.30000000000000004;fill:url(#b)"/></g><polyline points="87.09 35.21 91.56 35.86 70.78 56.12 75.69 84.72 50 71.21 24.31 84.72 29.22 56.12 8.44 35.86 37.16 31.68 50 5.66 60.98 27.91" style="fill:none;stroke:#4559EB;stroke-linecap:round;stroke-linejoin:round;stroke-width:3px"/><line x1="58.13" y1="53.39" x2="49.99" y2="61.33" style="fill:none;stroke:#4559EB;stroke-linecap:round;stroke-linejoin:round;stroke-width:3px"/><polyline points="50.18 47.18 83.36 14.84 90.34 22 63.94 47.73" style="fill:none;stroke:#4559EB;stroke-linecap:round;stroke-linejoin:round;stroke-width:3px"/><polyline points="50.01 61.33 33.76 44.71 40.92 37.73 50.18 47.18" style="fill:none;stroke:#4559EB;stroke-linecap:round;stroke-linejoin:round;stroke-width:3px"/></svg>