<svg xmlns="http://www.w3.org/2000/svg" xmlns:xlink="http://www.w3.org/1999/xlink" viewBox="0 0 100 90"><defs><linearGradient id="a" x1="27.34" y1="25.83" x2="66.72" y2="25.83" gradientUnits="userSpaceOnUse"><stop offset="0" stop-color="#32aaa0" stop-opacity="0"/><stop offset="0.61" stop-color="#32aaa0" stop-opacity="0.62"/><stop offset="1" stop-color="#32aaa0"/></linearGradient><linearGradient id="b" x1="66.23" y1="64.17" x2="95.18" y2="64.17" xlink:href="#a"/></defs><g style="opacity:0.30000000000000004"><polygon points="33.77 35.23 66.72 35.23 66.72 16.43 33.77 16.43 33.77 6.65 27.34 10.91 27.34 40.75 33.77 45 33.77 35.23" style="fill:url(#a)"/></g><polyline points="49.92 35.23 66.72 35.23 66.72 16.43 33.77 16.43 33.77 6.65 4.82 25.83 33.77 45 33.77 35.23 44.06 35.23" style="fill:none;stroke:#4559EB;stroke-linecap:round;stroke-linejoin:round;stroke-width:3px"/><polyline points="27.34 18.56 16.37 25.83 27.34 33.09" style="fill:none;stroke:#32aaa0;stroke-linecap:round;stroke-linejoin:round;stroke-width:3px"/><g style="opacity:0.30000000000000004"><polygon points="66.23 54.77 66.23 73.57 66.23 83.35 95.18 64.17 66.23 45 66.23 54.77" style="fill:url(#b)"/></g><polyline points="89.01 68.26 95.18 64.17 66.23 45 66.23 54.77 33.28 54.77 33.28 73.57 66.23 73.57 66.23 83.35 83.2 72.11" style="fill:none;stroke:#4559EB;stroke-linecap:round;stroke-linejoin:round;stroke-width:3px"/><polyline points="72.66 71.44 83.63 64.17 72.66 56.91" style="fill:none;stroke:#32aaa0;stroke-linecap:round;stroke-linejoin:round;stroke-width:3px"/><line x1="73.81" y1="22.46" x2="88.25" y2="22.46" style="fill:none;stroke:#4559EB;stroke-linecap:round;stroke-linejoin:round;stroke-width:3px"/><line x1="73.81" y1="29.19" x2="81.03" y2="29.19" style="fill:none;stroke:#4559EB;stroke-linecap:round;stroke-linejoin:round;stroke-width:3px"/><line x1="10.52" y1="60.81" x2="24.96" y2="60.81" style="fill:none;stroke:#4559EB;stroke-linecap:round;stroke-linejoin:round;stroke-width:3px"/><line x1="17.15" y1="67.54" x2="24.37" y2="67.54" style="fill:none;stroke:#4559EB;stroke-linecap:round;stroke-linejoin:round;stroke-width:3px"/></svg>